# AST/ASF file generated using VICON BodyLanguage
# -----------------------------------------------
:version 1.10
:name VICON
:units
  mass 1.0
  length 0.45
  angle deg
:documentation
   .ast/.asf automatically generated from VICON data using
   VICON BodyBuilder and BodyLanguage model FoxedUp or BRILLIANT.MOD
:root
   order TX TY TZ RX RY RZ
   axis XYZ
   position 0 0 0  
   orientation 0 0 0 
:bonedata
  begin
     id 1 
     name lhipjoint
     direction 0.541323 -0.757556 0.364798 
     length 2.47576 
     axis 0 0 0  XYZ
  end
  begin
     id 2 
     name lfemur
     direction 0.34202 -0.939693 0  
     length 7.46493  
     axis 0 0 20  XYZ
    dof rx ry rz
    limits (-160.0 20.0)
           (-70.0 70.0)
           (-60.0 70.0)
  end
  begin
     id 3 
     name ltibia
     direction 0.34202 -0.939693 0   
     length 7.73805   
     axis 0 0 20   XYZ
    dof rx
    limits (-10.0 170.0)
  end
  begin
     id 4 
     name lfoot
     direction 0.107174 -0.294458 0.949636   
     length 2.25864   
     axis -90 7.62852e-016 20   XYZ
    dof rx rz
    limits (-45.0 90.0)
           (-70.0 20.0)
  end
  begin
     id 5 
     name ltoes
     direction 1.53606e-011 -4.21934e-011 1   
     length 1.12451   
     axis -90 7.62852e-016 20   XYZ
    dof rx
    limits (-90.0 20.0)
  end
  begin
     id 6 
     name rhipjoint
     direction -0.524745 -0.766967 0.36933   
     length 2.44538  
     axis 0 0 0  XYZ 
  end
  begin
     id 7 
     name rfemur
     direction -0.34202 -0.939693 0   
     length 7.61604   
     axis 0 0 -20   XYZ
    dof rx ry rz
    limits (-160.0 20.0)
           (-70.0 70.0)
           (-70.0 60.0)
  end
  begin
     id 8 
     name rtibia
     direction -0.34202 -0.939693 0   
     length 7.61056   
     axis 0 0 -20   XYZ
    dof rx
    limits (-10.0 170.0)
 end
 begin
     id 9 
     name rfoot
     direction -0.12616 -0.346623 0.929482   
     length 2.46372  
     axis -90 -7.62852e-016 -20   XYZ
    dof rx rz
    limits (-45.0 90.0)
           (-20.0 70.0)
  end
  begin
     id 10 
     name rtoes
     direction -1.53531e-011 -4.22004e-011 1   
     length 1.21611   
     axis -90 -7.62852e-016 -20   XYZ
    dof rx
    limits (-90.0 20.0)
  end
  begin
     id 11 
     name lowerback
     direction -0.000778023 0.997293 -0.0735223   
     length 2.06139   
     axis 0 0 0   XYZ
    dof rx ry rz
    limits (-20.0 45.0)
           (-30.0 30.0)
           (-30.0 30.0)
  end
  begin
     id 12 
     name upperback
     direction 0.0222598 0.999722 -0.0078355   
     length 2.06383   
     axis 0 0 0   XYZ
    dof rx ry rz
    limits (-20.0 45.0)
           (-30.0 30.0)
           (-30.0 30.0)
  end
  begin
     id 13 
     name thorax
     direction 0.0219654 0.999405 0.0265994   
     length 2.07163   
     axis 0 0 0   XYZ
    dof rx ry rz
    limits (-20.0 45.0)
           (-30.0 30.0)
           (-30.0 30.0)
  end
  begin
     id 14 
     name lowerneck
     direction 0.0213282 0.988147 0.15202   
     length 1.75969   
     axis 0 0 0   XYZ
    dof rx ry rz
    limits (-20.0 45.0)
           (-30.0 30.0)
           (-30.0 30.0)
  end
  begin
     id 15 
     name upperneck
     direction -0.0546456 0.982624 -0.177379   
     length 1.79244   
     axis 0 0 0   XYZ
    dof rx ry rz
    limits (-20.0 45.0)
           (-30.0 30.0)
           (-30.0 30.0)
  end
  begin
     id 16
     name head
     direction -0.0199987 0.996855 -0.076686  
     length 1.80555  
     axis 0 0 0   XYZ
    dof rx ry rz
    limits (-20.0 45.0)
           (-30.0 30.0)
           (-30.0 30.0)
  end
  begin
     id 17 
     name lclavicle
     direction 0.929565 0.363219 -0.063096  
     length 3.55722  
     axis 0 0 0   XYZ
    dof ry rz
    limits (-20.0 10.0)
           (0.0 20.0)
  end
  begin
     id 18 
     name lhumerus
     direction 1 -4.48993e-011 -2.36203e-027   
     length 4.92785   
     axis 180 -30 -90   XYZ
    dof rx ry rz
    limits (-60.0 90.0)
           (-90.0 90.0)
           (-90.0 90.0)
  end
  begin
     id 19
     name lradius
     direction 1 -4.48947e-011 2.02997e-027   
     length 3.44052   
     axis 180 -30 -90   XYZ
    dof rx
    limits (-10.0 170.0)
  end
  begin
     id 20
     name lwrist
     direction 1 -4.48962e-011 1.45991e-027   
     length 1.72026   
     axis 1.49639e-024 90 90   XYZ
    dof ry
    limits (-180.0 0.0)
 end
  begin
     id 21 
     name lhand
     direction 1 -4.48984e-011 2.91906e-027   
     length 0.654326   
     axis -1.863e-015 90 90   XYZ
    dof rx rz
    limits (-90.0 90.0)
           (-45.0 45.0)
  end
  begin
     id 22 
     name lfingers
     direction 1 -4.48961e-011 5.83968e-027   
     length 0.527534   
     axis -3.72598e-015 90 90   XYZ
    dof rx
    limits (0.0 90.0)
  end
  begin
     id 23
     name lthumb
     direction 0.707107 -6.34963e-011 0.707107   
     length 0.757437   
     axis -90 45 -6.68868e-015   XYZ
    dof rx rz
    limits (-45.0 45.0)
           (-45.0 45.0)
  end
  begin
     id 24 
     name rclavicle
     direction -0.902944 0.422599 -0.0781198   
     length 3.54432  
     axis 0 0 0   XYZ 
    dof ry rz
    limits (-10.0 20.0)
           (-20.0 0.0)
  end
  begin
     id 25 
     name rhumerus
     direction -1 -4.48953e-011 -4.75835e-028  
     length 5.09181   
     axis 180 30 90   XYZ
    dof rx ry rz
    limits (-90.0 60.0)
           (-90.0 90.0)
           (-90.0 90.0)
  end
  begin
     id 26 
     name rradius
     direction -1 -4.48986e-011 -3.25889e-027   
     length 3.49865   
     axis 180 30 90   XYZ
    dof rx
    limits (-10.0 170.0)
  end
  begin
     id 27 
     name rwrist
     direction -1 -4.48963e-011 1.45989e-027   
     length 1.74933   
     axis 1.49639e-024 -90 -90   XYZ
    dof ry
    limits (-180.0 0.0)
  end
  begin
     id 28
     name rhand
     direction -1 -4.49003e-011 2.91844e-027   
     length 0.66641   
     axis -1.863e-015 -90 -90   XYZ
    dof rx rz
    limits (-90.0 90.0)
           (-45.0 45.0)
  end
  begin
     id 29
     name rfingers
     direction -1 -4.48973e-011 5.83886e-027   
     length 0.537277   
     axis -3.72598e-015 -90 -90   XYZ
    dof rx
    limits (0.0 90.0)
  end
  begin
     id 30
     name rthumb
     direction -0.707107 -6.34976e-011 0.707107   
     length 0.771425   
     axis -90 -45 6.68868e-015   XYZ
    dof rx rz
    limits (-45.0 45.0)
           (-45.0 45.0)
  end
:hierarchy
  begin
    root lhipjoint rhipjoint lowerback
    lhipjoint lfemur
    lfemur ltibia
    ltibia lfoot
    lfoot ltoes
    rhipjoint rfemur
    rfemur rtibia
    rtibia rfoot
    rfoot rtoes
    lowerback upperback
    upperback thorax
    thorax lowerneck lclavicle rclavicle
    lowerneck upperneck
    upperneck head
    lclavicle lhumerus
    lhumerus lradius
    lradius lwrist
    lwrist lhand lthumb
    lhand lfingers
    rclavicle rhumerus
    rhumerus rradius
    rradius rwrist
    rwrist rhand rthumb
    rhand rfingers
  end

#!OML:ASF H:\LiuWeirdWalks\Patient Classification 1\Patient 1\Session 1\male.ASF
:FULLY-SPECIFIED
:DEGREES
66
root -0.486423 17.4939 -28.956 6.2421 -0.474376 -2.04032
lowerback 3.65269 -0.0389624 -0.281759
upperback -1.34061 0.0174009 2.55865
thorax -3.43137 0.0439876 2.79655
lowerneck -19.8734 1.66521 5.45408
upperneck 21.4905 2.627 -7.89038
head 10.3408 0.705802 -3.34778
rclavicle -1.14301e-015 -3.97569e-015
rhumerus -38.5378 -12.1536 -76.4448
rradius 24.9564
rwrist -3.26219
rhand -15.5058 -2.70608
rfingers 7.12502
rthumb 10.6769 -32.4148
lclavicle -1.14301e-015 -3.97569e-015
lhumerus -34.4682 1.86748 86.3222
lradius 31.3884
lwrist 10.853
lhand -11.9635 1.46581
lfingers 7.12502
lthumb 14.0921 30.968
rfemur -8.47165 -0.552544 23.9953
rtibia 33.0519
rfoot -23.9805 -23.2064
rtoes -3.07934
lfemur -12.3369 -1.83071 -12.6858
ltibia 40.9964
lfoot -15.1025 18.27
ltoes -16.1905
67
root -0.506486 17.4937 -28.91 6.34546 -0.412377 -2.08772
lowerback 3.80238 -0.032734 -0.223279
upperback -1.30531 0.0309849 2.59562
thorax -3.48012 0.050031 2.80158
lowerneck -19.8945 1.64568 5.35827
upperneck 21.3391 2.6118 -7.85814
head 10.2874 0.695258 -3.31834
rclavicle 4.02539e-015 -2.06736e-014
rhumerus -38.4409 -12.1646 -76.3477
rradius 24.7049
rwrist -3.05435
rhand -15.5097 -2.69655
rfingers 7.12502
rthumb 10.6731 -32.4055
lclavicle 4.02539e-015 -2.06736e-014
lhumerus -34.7613 1.96755 86.3173
lradius 32.0253
lwrist 11.3838
lhand -11.8796 2.05558
lfingers 7.12502
lthumb 14.173 31.5521
rfemur -8.32104 -0.535301 24.1618
rtibia 32.827
rfoot -23.6961 -23.4419
rtoes -2.67074
lfemur -13.1594 -1.63045 -12.4801
ltibia 42.4824
lfoot -14.4757 17.7874
ltoes -17.0761
68
root -0.527014 17.494 -28.8633 6.44828 -0.336782 -2.14596
lowerback 3.96446 -0.00474392 -0.14397
upperback -1.26129 0.0743718 2.61524
thorax -3.52822 0.0701906 2.77477
lowerneck -19.9584 1.59199 5.25862
upperneck 21.2089 2.54161 -7.79526
head 10.2449 0.661917 -3.28605
rclavicle 3.08116e-015 -1.07344e-014
rhumerus -38.3042 -12.3482 -76.2041
rradius 24.3684
rwrist -2.74698
rhand -15.5105 -2.69014
rfingers 7.12502
rthumb 10.6723 -32.3991
lclavicle 3.08116e-015 -1.07344e-014
lhumerus -35.0514 1.92886 86.3314
lradius 32.7227
lwrist 12.0203
lhand -11.8006 2.53948
lfingers 7.12502
lthumb 14.2491 32.0307
rfemur -8.15566 -0.498489 24.3531
rtibia 32.5792
rfoot -23.3878 -23.716
rtoes -2.26637
lfemur -14.0604 -1.41331 -12.2513
ltibia 44.0731
lfoot -13.7082 17.2437
ltoes -18.0489
69
root -0.548225 17.4947 -28.8155 6.54477 -0.229119 -2.20245
lowerback 4.14 0.0236825 -0.0708016
upperback -1.21658 0.118423 2.6336
thorax -3.58316 0.0908286 2.74998
lowerneck -19.989 1.53888 5.18174
upperneck 21.0313 2.46752 -7.74671
head 10.1795 0.627961 -3.26206
rclavicle 8.59744e-015 -1.63003e-014
rhumerus -38.16 -12.5734 -76.0387
rradius 23.9994
rwrist -2.41417
rhand -15.4909 -2.70726
rfingers 7.12502
rthumb 10.6913 -32.4152
lclavicle 8.59744e-015 -1.63003e-014
lhumerus -35.359 1.80903 86.3658
lradius 33.4636
lwrist 12.7395
lhand -11.7301 2.87094
lfingers 7.12502
lthumb 14.317 32.3573
rfemur -7.95991 -0.455091 24.5567
rtibia 32.3004
rfoot -23.0836 -24.0254
rtoes -1.91021
lfemur -15.0339 -1.20943 -12.0116
ltibia 45.7576
lfoot -12.8143 16.6322
ltoes -19.0193
70
root -0.56991 17.4957 -28.7667 6.63946 -0.0837936 -2.26789
lowerback 4.31871 0.0485183 0.0115594
upperback -1.16599 0.158547 2.65609
thorax -3.63352 0.109265 2.72438
lowerneck -19.9904 1.4789 5.10632
upperneck 20.7942 2.384 -7.70887
head 10.0872 0.589481 -3.24198
rclavicle -6.11263e-015 -1.55052e-014
rhumerus -37.984 -12.8428 -75.8492
rradius 23.5828
rwrist -2.04016
rhand -15.4415 -2.73131
rfingers 7.12502
rthumb 10.7389 -32.4368
lclavicle -6.11263e-015 -1.55052e-014
lhumerus -35.6698 1.61784 86.4247
lradius 34.2302
lwrist 13.4929
lhand -11.6767 3.10223
lfingers 7.12502
lthumb 14.3685 32.585
rfemur -7.73323 -0.405442 24.7827
rtibia 31.9825
rfoot -22.8065 -24.3558
rtoes -1.6291
lfemur -16.0891 -1.01829 -11.7486
ltibia 47.5267
lfoot -11.7881 15.9348
ltoes -19.8585
71
root -0.591907 17.4974 -28.7162 6.7352 0.108352 -2.33858
lowerback 4.4919 0.0622988 0.108013
upperback -1.11857 0.185046 2.67861
thorax -3.68327 0.120603 2.69177
lowerneck -19.96 1.41397 5.03516
upperneck 20.5296 2.29318 -7.67551
head 9.97913 0.548251 -3.22446
rclavicle 3.03147e-015 -1.98785e-014
rhumerus -37.8102 -13.1234 -75.6469
rradius 23.1469
rwrist -1.63778
rhand -15.3382 -2.74639
rfingers 7.12502
rthumb 10.8386 -32.4467
lclavicle 3.03147e-015 -1.98785e-014
lhumerus -36.0162 1.39092 86.4888
lradius 35.042
lwrist 14.2337
lhand -11.6551 3.23086
lfingers 7.12502
lthumb 14.3894 32.7121
rfemur -7.47165 -0.362844 25.0238
rtibia 31.6186
rfoot -22.5758 -24.6962
rtoes -1.43641
lfemur -17.2225 -0.859661 -11.4693
ltibia 49.3621
lfoot -10.6557 15.1545
ltoes -20.4959
72
root -0.614137 17.4992 -28.6644 6.83846 0.362334 -2.42798
lowerback 4.65916 0.0605263 0.223289
upperback -1.0763 0.192857 2.71619
thorax -3.7341 0.122417 2.66556
lowerneck -19.8901 1.34639 4.96129
upperneck 20.2296 2.20401 -7.66193
head 9.85213 0.506243 -3.21226
rclavicle 4.57205e-015 -6.75868e-015
rhumerus -37.6088 -13.4602 -75.393
rradius 22.6504
rwrist -1.14118
rhand -15.164 -2.71589
rfingers 7.12502
rthumb 11.0066 -32.4073
lclavicle 4.57205e-015 -6.75868e-015
lhumerus -36.3831 1.15225 86.567
lradius 35.8892
lwrist 14.9448
lhand -11.6458 3.30074
lfingers 7.12502
lthumb 14.3983 32.7813
rfemur -7.18239 -0.338774 25.2948
rtibia 31.2062
rfoot -22.396 -25.035
rtoes -1.33199
lfemur -18.4446 -0.738208 -11.1587
ltibia 51.2466
lfoot -9.44464 14.253
ltoes -20.8361
73
root -0.635942 17.5014 -28.6105 6.93869 0.656472 -2.51824
lowerback 4.82123 0.047963 0.351327
upperback -1.03185 0.187478 2.75742
thorax -3.77912 0.117365 2.63698
lowerneck -19.8551 1.27724 4.87404
upperneck 19.9762 2.1179 -7.64714
head 9.74881 0.463804 -3.19826
rclavicle -7.45443e-016 9.93923e-015
rhumerus -37.3845 -13.8696 -75.0865
rradius 22.1017
rwrist -0.538205
rhand -14.9404 -2.6888
rfingers 7.12502
rthumb 11.2223 -32.3686
lclavicle -7.45443e-016 9.93923e-015
lhumerus -36.757 0.912408 86.6497
lradius 36.7469
lwrist 15.5703
lhand -11.6787 3.2955
lfingers 7.12502
lthumb 14.3666 32.7784
rfemur -6.85551 -0.341462 25.5659
rtibia 30.744
rfoot -22.257 -25.3459
rtoes -1.30529
lfemur -19.731 -0.647576 -10.8472
ltibia 53.147
lfoot -8.21071 13.2132
ltoes -20.8332
74
root -0.656813 17.5035 -28.5547 7.03843 0.989833 -2.62163
lowerback 4.98209 0.0366302 0.509411
upperback -0.987458 0.186165 2.79987
thorax -3.82361 0.113667 2.59246
lowerneck -19.8303 1.19477 4.78112
upperneck 19.7327 2.01345 -7.62501
head 9.64982 0.413087 -3.18356
rclavicle 5.41688e-015 -2.70347e-014
rhumerus -37.1344 -14.4338 -74.6975
rradius 21.4845
rwrist 0.197598
rhand -14.6852 -2.69005
rfingers 7.12502
rthumb 11.4683 -32.3564
lclavicle 5.41688e-015 -2.70347e-014
lhumerus -37.122 0.644433 86.7415
lradius 37.6054
lwrist 16.112
lhand -11.7138 3.22756
lfingers 7.12502
lthumb 14.3328 32.7128
rfemur -6.50103 -0.386739 25.8453
rtibia 30.2398
rfoot -22.13 -25.6202
rtoes -1.36154
lfemur -21.0718 -0.578329 -10.5318
ltibia 55.0354
lfoot -6.96418 12.0551
ltoes -20.5815
75
root -0.676338 17.5055 -28.4961 7.12277 1.33371 -2.72569
lowerback 5.15303 0.0290796 0.674643
upperback -0.94065 0.191411 2.84998
thorax -3.87157 0.113156 2.55139
lowerneck -19.7374 1.10721 4.66822
upperneck 19.4171 1.90576 -7.60021
head 9.51326 0.3615 -3.16282
rclavicle 2.6339e-015 4.77083e-015
rhumerus -36.8823 -15.0849 -74.2356
rradius 20.8415
rwrist 1.00746
rhand -14.4253 -2.74826
rfingers 7.12502
rthumb 11.719 -32.4005
lclavicle 2.6339e-015 4.77083e-015
lhumerus -37.4692 0.384428 86.8455
lradius 38.4312
lwrist 16.5665
lhand -11.7606 3.11665
lfingers 7.12502
lthumb 14.2877 32.6051
rfemur -6.10727 -0.467396 26.1113
rtibia 29.7036
rfoot -22.0049 -25.8439
rtoes -1.49191
lfemur -22.4227 -0.522472 -10.2379
ltibia 56.8736
lfoot -5.823 10.8282
ltoes -20.0071
76
root -0.69435 17.5068 -28.4352 7.19945 1.68306 -2.831
lowerback 5.30988 0.0417866 0.86279
upperback -0.888027 0.22494 2.88986
thorax -3.90644 0.125995 2.48426
lowerneck -19.6195 0.979602 4.52017
upperneck 19.0974 1.74483 -7.53792
head 9.36712 0.28734 -3.12992
rclavicle -6.95746e-016 -1.43125e-014
rhumerus -36.6276 -15.9685 -73.6593
rradius 20.1362
rwrist 1.95703
rhand -14.1693 -2.8461
rfingers 7.12502
rthumb 11.9659 -32.4841
lclavicle -6.95746e-016 -1.43125e-014
lhumerus -37.782 0.0881726 86.9539
lradius 39.2141
lwrist 16.9348
lhand -11.822 2.96303
lfingers 7.12502
lthumb 14.2285 32.4557
rfemur -5.68977 -0.586309 26.3629
rtibia 29.1461
rfoot -21.8702 -26.0153
rtoes -1.69771
lfemur -23.7719 -0.473531 -9.97232
ltibia 58.6348
lfoot -4.88187 9.65988
ltoes -19.3294
77
root -0.710882 17.5071 -28.3722 7.275 2.04701 -2.94662
lowerback 5.4591 0.0606016 1.07198
upperback -0.848903 0.269097 2.93485
thorax -3.95116 0.143775 2.40966
lowerneck -19.4158 0.837695 4.36456
upperneck 18.729 1.56697 -7.47846
head 9.18848 0.206344 -3.09715
rclavicle -1.2921e-015 -2.26615e-014
rhumerus -36.4178 -16.968 -72.9922
rradius 19.4256
rwrist 2.94664
rhand -13.9298 -3.0015
rfingers 7.12502
rthumb 12.1968 -32.6259
lclavicle -1.2921e-015 -2.26615e-014
lhumerus -38.0959 -0.197131 87.0633
lradius 39.9485
lwrist 17.2217
lhand -11.8763 2.73293
lfingers 7.12502
lthumb 14.1762 32.2292
rfemur -5.26331 -0.743426 26.6139
rtibia 28.5793
rfoot -21.7243 -26.1411
rtoes -1.96159
lfemur -25.1082 -0.440616 -9.72637
ltibia 60.2933
lfoot -4.23262 8.7435
ltoes -18.7469
78
root -0.725821 17.5067 -28.307 7.35074 2.41931 -3.07693
lowerback 5.58984 -0.124049 1.17368
upperback -0.802426 0.0435384 3.2205
thorax -3.96985 0.0326728 2.66988
lowerneck -19.2885 1.08909 4.26897
upperneck 18.3451 2.01389 -7.86636
head 9.06839 0.37105 -3.14771
rclavicle 9.93923e-015 7.95139e-016
rhumerus -35.9145 -17.1968 -72.3438
rradius 18.6696
rwrist 3.83474
rhand -13.7181 -3.21931
rfingers 7.12502
rthumb 12.4009 -32.8315
lclavicle 9.93923e-015 7.95139e-016
lhumerus -38.4982 0.423152 87.1977
lradius 40.6751
lwrist 17.3425
lhand -11.9436 2.48891
lfingers 7.12502
lthumb 14.1114 31.9897
rfemur -4.8317 -0.921683 26.8704
rtibia 28.0101
rfoot -21.5801 -26.2287
rtoes -2.25931
lfemur -26.4181 -0.426606 -9.49667
ltibia 61.8253
lfoot -3.92928 8.18883
ltoes -18.2159
79
root -0.739077 17.5053 -28.239 7.4294 2.81611 -3.20672
lowerback 5.70217 -0.256674 1.32578
upperback -0.779723 -0.110582 3.44754
thorax -4.00433 -0.0446032 2.83536
lowerneck -19.1211 1.24132 4.17143
upperneck 18.015 2.30447 -8.16458
head 8.9492 0.474594 -3.18859
rclavicle 1.39149e-015 3.18055e-014
rhumerus -35.5507 -17.6566 -71.6399
rradius 17.9768
rwrist 4.69804
rhand -13.5298 -3.48273
rfingers 7.12502
rthumb 12.5824 -33.0838
lclavicle 1.39149e-015 3.18055e-014
lhumerus -38.9185 0.866179 87.3141
lradius 41.3697
lwrist 17.415
lhand -12.0153 2.22004
lfingers 7.12502
lthumb 14.0422 31.7257
rfemur -4.39559 -1.12871 27.1198
rtibia 27.4415
rfoot -21.4354 -26.2886
rtoes -2.57291
lfemur -27.6916 -0.434131 -9.30116
ltibia 63.2097
lfoot -3.94853 8.03905
ltoes -17.6228
80
root -0.75067 17.5033 -28.1683 7.51734 3.22283 -3.35179
lowerback 5.79462 -0.366014 1.51551
upperback -0.79935 -0.23009 3.65616
thorax -4.07277 -0.105499 2.95835
lowerneck -18.8705 1.3266 4.04293
upperneck 17.7438 2.50387 -8.41576
head 8.82875 0.540856 -3.22088
rclavicle -7.65321e-015 2.3059e-014
rhumerus -35.3074 -18.2329 -70.8691
rradius 17.3202
rwrist 5.57174
rhand -13.3601 -3.74265
rfingers 7.12502
rthumb 12.7461 -33.3336
lclavicle -7.65321e-015 2.3059e-014
lhumerus -39.4127 1.26946 87.4108
lradius 42.0354
lwrist 17.4157
lhand -12.1013 1.93819
lfingers 7.12502
lthumb 13.9594 31.4496
rfemur -3.96357 -1.33711 27.3817
rtibia 26.8722
rfoot -21.2747 -26.3373
rtoes -2.90771
lfemur -28.9382 -0.444404 -9.12134
ltibia 64.4253
lfoot -4.31645 8.25046
ltoes -17.3086
